0
SECTION
2
HEADER
9
$INSUNITS
70
4
9
$ACADVER
1
AC1014
9
$HANDSEED
5
FFFF
0
ENDSEC
0
SECTION
2
TABLES
0
TABLE
2
VPORT
5
8
100
AcDbSymbolTable
0
ENDTAB
0
TABLE
2
LTYPE
5
5
100
AcDbSymbolTable
0
LTYPE
5
14
100
AcDbSymbolTableRecord
100
AcDbLinetypeTableRecord
2
BYBLOCK
70
0
0
LTYPE
5
15
100
AcDbSymbolTableRecord
100
AcDbLinetypeTableRecord
2
BYLAYER
70
0
0
LTYPE
5
16
100
AcDbSymbolTableRecord
100
AcDbLinetypeTableRecord
2
DASHED
70
0
3
Dashed __ __ __ __ __ __ __ __ __ __ __ __ __ _
72
65
73
2
40
0.75
49
0.5
74
0
49
-0.25
74
0
0
ENDTAB
0
TABLE
2
LAYER
5
2
100
AcDbSymbolTable
70
2
0
LAYER
5
50
100
AcDbSymbolTableRecord
100
AcDbLayerTableRecord
2
0
70
0
62
7
6
CONTINUOUS
0
ENDTAB
0
TABLE
2
STYLE
5
3
100
AcDbSymbolTable
70
1
0
STYLE
5
11
100
AcDbSymbolTableRecord
100
AcDbTextStyleTableRecord
2
STANDARD
70
0
0
ENDTAB
0
TABLE
2
VIEW
5
6
100
AcDbSymbolTable
70
0
0
ENDTAB
0
TABLE
2
UCS
5
7
100
AcDbSymbolTable
70
0
0
ENDTAB
0
TABLE
2
APPID
5
9
100
AcDbSymbolTable
70
2
0
APPID
5
12
100
AcDbSymbolTableRecord
100
AcDbRegAppTableRecord
2
ACAD
70
0
0
ENDTAB
0
TABLE
2
DIMSTYLE
5
A
100
AcDbSymbolTable
70
1
0
ENDTAB
0
TABLE
2
BLOCK_RECORD
5
1
100
AcDbSymbolTable
70
1
0
BLOCK_RECORD
5
1F
100
AcDbSymbolTableRecord
100
AcDbBlockTableRecord
2
*MODEL_SPACE
0
BLOCK_RECORD
5
1B
100
AcDbSymbolTableRecord
100
AcDbBlockTableRecord
2
*PAPER_SPACE
0
ENDTAB
0
ENDSEC
0
SECTION
2
BLOCKS
0
BLOCK
5
20
100
AcDbEntity
100
AcDbBlockBegin
2
*MODEL_SPACE
0
ENDBLK
5
21
100
AcDbEntity
100
AcDbBlockEnd
0
BLOCK
5
1C
100
AcDbEntity
100
AcDbBlockBegin
2
*PAPER_SPACE
0
ENDBLK
5
1D
100
AcDbEntity
100
AcDbBlockEnd
0
ENDSEC
0
SECTION
2
ENTITIES
0
LWPOLYLINE
5
100
100
AcDbEntity
8
0
100
AcDbPolyline
90
22
70
1
43
0.0
10
29.302939360944332
20
42.181584525053992
42
0.41421356237309626
10
28.646586996579142
20
43.434262286408526
10
-120.83047184727562
20
90.126540870675427
10
-128.28453930964264
20
66.263664299178828
10
-113.96681336674465
20
61.791223821758621
42
-0.4142135623730947
10
-110.68505154491874
20
55.527835014985889
10
-122.61155948470591
20
17.347232500591314
42
-0.41421356237309576
10
-128.87494829147866
20
14.065470678765394
10
-143.19267423437665
20
18.537911156185626
10
-150.64674169674365
20
-5.3249654153110253
10
38.91994978722547
20
-64.5400773363545
42
0.41421356237309753
10
40.17262754858001
20
-63.883724971989302
10
47.030369613957646
20
-41.929878526212399
42
0.41421356237310902
10
46.374017249592477
20
-40.677200764857837
10
-9.1492153589977789
20
-23.333360412958054
42
-0.26344713910229978
10
-12.517868649978009
20
-19.737892816971179
10
-18.008795434402771
20
2.9303608221622972
42
-0.27698396494843247
10
-16.474761006379474
20
7.8413003054926698
10
0.94267371783251119
20
23.35364918075377
42
-0.26344713910229967
10
5.7589195657362415
20
24.392392730035137
10
21.192519534212153
20
19.571385714911912
42
0.41421356237309337
10
22.445197295566686
20
20.227738079277081
0
CIRCLE
5
101
100
AcDbEntity
8
0
100
AcDbCircle
10
-0.91293843841999567
20
-41.620919437840328
30
1.7763568394002505e-14
40
1.5500000000000029
210
-1.0344596654786325e-18
220
-3.3116393754329691e-18
230
1
0
CIRCLE
5
102
100
AcDbEntity
8
0
100
AcDbCircle
10
-138.31173762270117
20
3.9175937046134179
30
1.7763568394002505e-14
40
1.5500000000000029
210
-1.0344596654786325e-18
220
-3.3116393754329691e-18
230
1
0
CIRCLE
5
103
100
AcDbEntity
8
0
100
AcDbCircle
10
22.940077441154454
20
34.740285590948837
30
1.7763568394002505e-14
40
1.5500000000000029
210
-1.0344596654786325e-18
220
-3.3116393754329691e-18
230
1
0
CIRCLE
5
104
100
AcDbEntity
8
0
100
AcDbCircle
10
-115.94953523560028
20
75.506223419103279
30
1.7763568394002505e-14
40
1.5499999999999992
210
-1.5315476832689146e-17
220
-2.4854400889514095e-18
230
1
0
CIRCLE
5
105
100
AcDbEntity
8
0
100
AcDbCircle
10
-105.85735495853481
20
-8.839340980779367
30
1.7763568394002505e-14
40
1.5499999999999945
210
-1.6551354647658122e-17
220
-5.2986230006927493e-17
230
1
0
LWPOLYLINE
5
106
100
AcDbEntity
8
0
100
AcDbPolyline
90
2
70
1
43
0.0
10
-62.072819818652306
20
18.905567086301389
42
0.32807130494293091
10
-60.984972001319065
20
17.426068738868633
42
3.0481178479597708
0
CIRCLE
5
107
100
AcDbEntity
8
0
100
AcDbCircle
10
-82.00433907895993
20
67.521864048010329
30
0
40
1.5499999999999945
210
-1.6551354647658122e-17
220
-5.2986230006927493e-17
230
1
0
CIRCLE
5
108
100
AcDbEntity
8
0
100
AcDbCircle
10
-39.041300558344261
20
-29.710729875406983
30
1.7763568394002505e-14
40
1.5500000000000029
210
-1.0344596654786325e-18
220
-3.3116393754329691e-18
230
1
0
CIRCLE
5
109
100
AcDbEntity
8
0
100
AcDbCircle
10
-15.188284678769545
20
46.65047515338226
30
0
40
1.5500000000000029
210
-1.0344596654786325e-18
220
-3.3116393754329691e-18
230
1
0
ENDSEC
0
SECTION
2
OBJECTS
0
DICTIONARY
5
C
100
AcDbDictionary
3
ACAD_GROUP
350
D
3
ACAD_MLINESTYLE
350
17
0
DICTIONARY
5
D
100
AcDbDictionary
0
DICTIONARY
5
1A
330
C
100
AcDbDictionary
0
DICTIONARY
5
17
100
AcDbDictionary
0
ENDSEC
0
EOF
