0
SECTION
2
HEADER
9
$INSUNITS
70
4
9
$ACADVER
1
AC1014
9
$HANDSEED
5
FFFF
0
ENDSEC
0
SECTION
2
TABLES
0
TABLE
2
VPORT
5
8
100
AcDbSymbolTable
0
ENDTAB
0
TABLE
2
LTYPE
5
5
100
AcDbSymbolTable
0
LTYPE
5
14
100
AcDbSymbolTableRecord
100
AcDbLinetypeTableRecord
2
BYBLOCK
70
0
0
LTYPE
5
15
100
AcDbSymbolTableRecord
100
AcDbLinetypeTableRecord
2
BYLAYER
70
0
0
LTYPE
5
16
100
AcDbSymbolTableRecord
100
AcDbLinetypeTableRecord
2
DASHED
70
0
3
Dashed __ __ __ __ __ __ __ __ __ __ __ __ __ _
72
65
73
2
40
0.75
49
0.5
74
0
49
-0.25
74
0
0
ENDTAB
0
TABLE
2
LAYER
5
2
100
AcDbSymbolTable
70
3
0
LAYER
5
50
100
AcDbSymbolTableRecord
100
AcDbLayerTableRecord
2
1
70
0
62
7
6
DASHED
0
LAYER
5
51
100
AcDbSymbolTableRecord
100
AcDbLayerTableRecord
2
0
70
0
62
7
6
CONTINUOUS
0
ENDTAB
0
TABLE
2
STYLE
5
3
100
AcDbSymbolTable
70
1
0
STYLE
5
11
100
AcDbSymbolTableRecord
100
AcDbTextStyleTableRecord
2
STANDARD
70
0
0
ENDTAB
0
TABLE
2
VIEW
5
6
100
AcDbSymbolTable
70
0
0
ENDTAB
0
TABLE
2
UCS
5
7
100
AcDbSymbolTable
70
0
0
ENDTAB
0
TABLE
2
APPID
5
9
100
AcDbSymbolTable
70
2
0
APPID
5
12
100
AcDbSymbolTableRecord
100
AcDbRegAppTableRecord
2
ACAD
70
0
0
ENDTAB
0
TABLE
2
DIMSTYLE
5
A
100
AcDbSymbolTable
70
1
0
ENDTAB
0
TABLE
2
BLOCK_RECORD
5
1
100
AcDbSymbolTable
70
1
0
BLOCK_RECORD
5
1F
100
AcDbSymbolTableRecord
100
AcDbBlockTableRecord
2
*MODEL_SPACE
0
BLOCK_RECORD
5
1B
100
AcDbSymbolTableRecord
100
AcDbBlockTableRecord
2
*PAPER_SPACE
0
ENDTAB
0
ENDSEC
0
SECTION
2
BLOCKS
0
BLOCK
5
20
100
AcDbEntity
100
AcDbBlockBegin
2
*MODEL_SPACE
0
ENDBLK
5
21
100
AcDbEntity
100
AcDbBlockEnd
0
BLOCK
5
1C
100
AcDbEntity
100
AcDbBlockBegin
2
*PAPER_SPACE
0
ENDBLK
5
1D
100
AcDbEntity
100
AcDbBlockEnd
0
ENDSEC
0
SECTION
2
ENTITIES
0
CIRCLE
5
100
100
AcDbEntity
8
0
100
AcDbCircle
10
-112.39071142189817
20
-46.990949148968149
30
0
40
3.0000000000000071
210
0
220
-0
230
1
0
CIRCLE
5
101
100
AcDbEntity
8
0
100
AcDbCircle
10
-96.890711421898146
20
-73.837736666285707
30
0
40
3.0000000000000071
210
0
220
-0
230
1
0
CIRCLE
5
102
100
AcDbEntity
8
0
100
AcDbCircle
10
96.890711421898231
20
-73.837736666285636
30
0
40
3.0000000000000071
210
0
220
0
230
1
0
CIRCLE
5
103
100
AcDbEntity
8
0
100
AcDbCircle
10
112.39071142189817
20
-46.990949148968028
30
0
40
3.0000000000000071
210
0
220
0
230
1
0
ARC
5
104
100
AcDbEntity
8
0
100
AcDbCircle
10
-51.694884245529934
20
-109.60000000000038
30
1.3293794844063718e-61
40
25.399999999999618
210
1.3684555315672042e-48
220
0
230
1
100
AcDbArc
50
244.74821740740185
51
270.00000000000023
0
LINE
5
105
100
AcDbEntity
8
0
100
AcDbLine
10
-51.694884245529835
20
-135
30
0
11
51.694884245529884
21
-135
31
0
0
ARC
5
106
100
AcDbEntity
8
0
100
AcDbCircle
10
51.694884245529778
20
-109.59999999999968
30
-1.8610995229313977e-44
40
25.400000000000311
210
-1.0516425009142518e-32
220
6.8858818188393515e-46
230
1
100
AcDbArc
50
270.00000000000023
51
295.25178259259786
0
ARC
5
107
100
AcDbEntity
8
0
100
AcDbCircle
10
0
20
-5.4387315340179798e-15
30
0
40
146.57970563241494
210
-1.8223340951583175e-33
220
3.8635895939088462e-33
230
1
100
AcDbArc
50
295.25178259259798
51
323.50881865205167
0
SPLINE
5
108
100
AcDbEntity
8
0
100
AcDbSpline
70
0
71
3
72
16
73
12
74
0
42
0.000000001
43
0.0000000001
44
0.0000000001
40
0
40
0
40
0
40
0
40
0.19531550789748581
40
0.19531550789748581
40
0.39060514787441192
40
0.39060514787441192
40
0.58590832600386356
40
0.58590832600386356
40
0.78125127830885444
40
0.78125127830885444
40
0.96764047141672427
40
0.96764047141672427
40
0.96764047141672427
40
0.96764047141672427
10
115.19843569471811
20
-79.389115149497243
30
0
10
115.82440278179256
20
-79.568094234439556
30
0
10
116.40941182152631
20
-79.867640085646201
30
0
10
117.43158725954855
20
-80.674114899185284
30
0
10
117.85898430570852
20
-81.173293039748444
30
0
10
118.4984155091347
20
-82.307431911324016
30
0
10
118.70431494249559
20
-82.931546292711019
30
0
10
118.86536869286647
20
-84.223707541827423
30
0
10
118.81893272283341
20
-84.879409091336626
30
0
10
118.48523459218296
20
-86.107324460324222
30
0
10
118.21200858977208
20
-86.671316742890724
30
0
10
117.8425202488593
20
-87.170812343826412
30
0
0
ELLIPSE
5
109
100
AcDbEntity
8
0
100
AcDbEllipse
10
118.34066742689963
20
-68.324016195000382
30
0
11
-9.9973350215560561
21
5.7719640658742151
31
0.0
40
0.99619469809174566
41
4.4663848363965544
42
8.0999857779620736
0
SPLINE
5
110
100
AcDbEntity
8
0
100
AcDbSpline
70
0
71
3
72
16
73
12
74
0
42
0.000000001
43
0.0000000001
44
0.0000000001
40
0
40
0
40
0
40
0
40
0.19544297511466793
40
0.19544297511466793
40
0.39085449375469028
40
0.39085449375469028
40
0.58620225519642211
40
0.58620225519642211
40
0.78148663651076267
40
0.78148663651076267
40
0.96764951891154949
40
0.96764951891154949
40
0.96764951891154949
40
0.96764951891154949
10
134.41339808270951
20
-58.46921000958087
30
0
10
134.15353044942941
20
-59.066613183579051
30
0
10
133.77944588398162
20
-59.607547990241059
30
0
10
132.84503943083681
20
-60.515453871253015
30
0
10
132.29367380222561
20
-60.873779461676918
30
0
10
131.08480489245574
20
-61.358758734209331
30
0
10
130.43889517491783
20
-61.480850065833081
30
0
10
129.1368408865624
20
-61.470509037925069
30
0
10
128.49316041474194
20
-61.338257589381975
30
0
10
127.3207506478295
20
-60.846211032479346
30
0
10
126.79825802620257
20
-60.501614161609545
30
0
10
126.3522083507918
20
-60.070214213105174
30
0
0
ARC
5
111
100
AcDbEntity
8
0
100
AcDbCircle
10
0
20
-5.4387315340179798e-15
30
0
40
146.57970563241489
210
9.8334029548785735e-33
220
2.2605763027501191e-32
230
1
100
AcDbArc
50
-23.508818652058466
51
21.595308948077808
0
ARC
5
112
100
AcDbEntity
8
0
100
AcDbCircle
10
112.67369283536743
20
44.599999999999994
30
-1.1102230246251565e-15
40
25.400000000000031
210
-4.0641445708044908e-17
220
-1.608723769467023e-17
230
1
100
AcDbArc
50
21.595308948077928
51
90
0
LINE
5
113
100
AcDbEntity
8
0
100
AcDbLine
10
112.67369283536743
20
70
30
-1.1102230246251565e-15
11
-112.67369283536746
21
70
31
0
0
ARC
5
114
100
AcDbEntity
8
0
100
AcDbCircle
10
-112.67369283536745
20
44.600000000000023
30
-1.1102230246251565e-15
40
25.399999999999974
210
3.0568421214156697e-32
220
-4.3709567898628256e-17
230
1
100
AcDbArc
50
90.000000000000043
51
158.40469105192221
0
ARC
5
115
100
AcDbEntity
8
0
100
AcDbCircle
10
0
20
-5.4387315340179798e-15
30
0
40
146.57970563241491
210
-7.0425350939991316e-18
220
2.7876699279866739e-18
230
1
100
AcDbArc
50
158.40469105192221
51
203.50881865205162
0
SPLINE
5
116
100
AcDbEntity
8
0
100
AcDbSpline
70
0
71
3
72
16
73
12
74
0
42
0.000000001
43
0.0000000001
44
0.0000000001
40
0
40
0
40
0
40
0
40
0.1953155061842223
40
0.1953155061842223
40
0.39060514702283944
40
0.39060514702283944
40
0.58590832803080262
40
0.58590832803080262
40
0.78125128349794293
40
0.78125128349794293
40
0.9676404714209379
40
0.9676404714209379
40
0.9676404714209379
40
0.9676404714209379
10
-126.35220835079174
20
-60.070214213105267
30
0
10
-126.82019232453007
20
-60.522828066003285
30
0
10
-127.37211115560214
20
-60.879687828000868
30
0
10
-128.58162654637727
20
-61.361680320739005
30
0
10
-129.22762602279653
20
-61.482227952117945
30
0
10
-130.52953471120244
20
-61.468922184539061
30
0
10
-131.17298334653719
20
-61.335179131003194
30
0
10
-132.37255470575857
20
-60.82857513299011
30
0
10
-132.91719092626965
20
-60.460509618574569
30
0
10
-133.81374775015456
20
-59.557560871312198
30
0
10
-134.16556638057097
20
-59.038944083833044
30
0
10
-134.41339808270948
20
-58.469210009580976
30
0
0
ELLIPSE
5
117
100
AcDbEntity
8
0
100
AcDbEllipse
10
-118.34066742689957
20
-68.324016195000453
30
0
11
9.9973350215560046
21
5.7719640658743199
31
0.0
40
0.99619469809174521
41
4.4663848363965508
42
8.0999857779620719
0
SPLINE
5
118
100
AcDbEntity
8
0
100
AcDbSpline
70
0
71
3
72
16
73
12
74
0
42
0.000000001
43
0.0000000001
44
0.0000000001
40
0
40
0
40
0
40
0
40
0.19544297591823084
40
0.19544297591823084
40
0.39085449750712875
40
0.39085449750712875
40
0.58620226239078832
40
0.58620226239078832
40
0.78148664568989923
40
0.78148664568989923
40
0.96764951891960715
40
0.96764951891960715
40
0.96764951891960715
40
0.96764951891960715
10
-117.84252024885923
20
-87.170812343826498
30
0
10
-118.22995275879599
20
-86.647058782632087
30
0
10
-118.51137376113854
20
-86.052624639745687
30
0
10
-118.83044009282068
20
-84.789451960721166
30
0
10
-118.86507634021797
20
-84.132792514106512
30
0
10
-118.68064624305379
20
-82.843391672418136
30
0
10
-118.46342556842588
20
-82.222971773886201
30
0
10
-117.80344280620902
20
-81.100530190834064
30
0
10
-117.367069443684
20
-80.609212276581871
30
0
10
-116.35473974718354
20
-79.839898946150967
30
0
10
-115.7950638176271
20
-79.55970551709666
30
0
10
-115.19843569471806
20
-79.389115149497329
30
0
0
ARC
5
119
100
AcDbEntity
8
0
100
AcDbCircle
10
0
20
-5.4387315340179798e-15
30
0
40
146.57970563241494
210
1.4660463576308636e-32
220
-1.9818858278325603e-32
230
1
100
AcDbArc
50
216.49118134794151
51
244.74821740740205
0
CIRCLE
5
120
100
AcDbEntity
8
0
100
AcDbCircle
10
103.5077246884444
20
-93.419733405834137
30
0
40
1.5499999999999934
210
-1.0674587249590379e-32
220
-6.1629758220391602e-33
230
1
0
CIRCLE
5
121
100
AcDbEntity
8
0
100
AcDbCircle
10
92.838084168127978
20
-53.600092885517725
30
0
40
1.5500000000000114
210
0
220
-0
230
1
0
CIRCLE
5
122
100
AcDbEntity
8
0
100
AcDbCircle
10
132.65772468844438
20
-42.930452365201305
30
0
40
1.5499999999999934
210
-1.0674587249590379e-32
220
-6.1629758220391602e-33
230
1
0
CIRCLE
5
123
100
AcDbEntity
8
0
100
AcDbCircle
10
-132.65772468844435
20
-42.93045236520144
30
0
40
1.5499999999999934
210
0
220
0
230
1
0
CIRCLE
5
124
100
AcDbEntity
8
0
100
AcDbCircle
10
-92.838084168127921
20
-53.600092885517824
30
0
40
1.5500000000000114
210
0
220
0
230
1
0
CIRCLE
5
125
100
AcDbEntity
8
0
100
AcDbCircle
10
-103.50772468844433
20
-93.419733405834236
30
0
40
1.5499999999999934
210
0
220
0
230
1
0
CIRCLE
5
126
100
AcDbEntity
8
0
100
AcDbCircle
10
-2.6268009719751128e-31
20
-78.425000000000026
30
0
40
1.5749999999999993
210
0
220
0
230
1
0
CIRCLE
5
127
100
AcDbEntity
8
0
100
AcDbCircle
10
0
20
-113.57500000000002
30
0
40
1.5749999999999975
210
0
220
-2.4651903288156624e-32
230
1
0
LWPOLYLINE
5
128
100
AcDbEntity
8
0
100
AcDbPolyline
90
12
70
1
43
0.0
10
-7.0000000000000009
20
-107.00000000000003
10
-7.0000000000000009
20
-100.00000000000001
10
-11.500000000000002
20
-100.00000000000001
10
-11.500000000000002
20
-92.000000000000014
10
-7.0000000000000009
20
-92.000000000000014
10
-7.0000000000000009
20
-85.000000000000014
10
6.9999999999999982
20
-85.000000000000014
10
7
20
-92.000000000000014
10
11.500000000000002
20
-92.000000000000014
10
11.500000000000002
20
-100.00000000000001
10
7
20
-100.00000000000001
10
7
20
-107.00000000000003
0
CIRCLE
5
129
100
AcDbEntity
8
0
100
AcDbCircle
10
-67.918042291794634
20
39.212499999999991
30
0
40
1.5749999999999993
210
1.0674587249590385e-32
220
-6.1629758220391513e-33
230
1
0
CIRCLE
5
130
100
AcDbEntity
8
0
100
AcDbCircle
10
-98.358835234817661
20
56.78749999999998
30
-1.1102230246251565e-15
40
1.5749999999999977
210
-1.6513643944879185e-33
220
-2.7512150321219931e-32
230
1
0
LWPOLYLINE
5
131
100
AcDbEntity
8
0
100
AcDbPolyline
90
12
70
1
43
0.0
10
-89.164718204934985
20
59.562177826491059
10
-83.102540378443891
20
56.062177826491052
10
-80.852540378443905
20
59.959292143521026
10
-73.924337148168377
20
55.95929214352104
10
-76.174337148168391
20
52.062177826491059
10
-70.112159321677311
20
48.562177826491066
10
-77.112159321677311
20
36.43782217350892
10
-83.174337148168377
20
39.937822173508913
10
-85.424337148168377
20
36.040707856478939
10
-92.352540378443877
20
40.040707856478939
10
-90.102540378443891
20
43.937822173508906
10
-96.164718204934985
20
47.437822173508913
0
CIRCLE
5
132
100
AcDbEntity
8
0
100
AcDbCircle
10
67.918042291794592
20
39.212500000000048
30
0
40
1.5749999999999995
210
0
220
-0
230
1
0
CIRCLE
5
133
100
AcDbEntity
8
0
100
AcDbCircle
10
98.358835234817604
20
56.787500000000065
30
-1.1102230246251565e-15
40
1.5749999999999977
210
-1.6513643944879404e-33
220
2.751215032121992e-32
230
1
0
LWPOLYLINE
5
134
100
AcDbEntity
8
0
100
AcDbPolyline
90
12
70
1
43
0.0
10
96.164718204934928
20
47.437822173508984
10
90.102540378443848
20
43.937822173508977
10
92.352540378443862
20
40.04070785647901
10
85.424337148168348
20
36.040707856479003
10
83.174337148168348
20
39.937822173508984
10
77.112159321677282
20
36.437822173508977
10
70.112159321677268
20
48.562177826491109
10
76.174337148168334
20
52.062177826491123
10
73.924337148168334
20
55.959292143521097
10
80.852540378443848
20
59.959292143521097
10
83.102540378443862
20
56.062177826491123
10
89.164718204934928
20
59.562177826491123
0
ENDSEC
0
SECTION
2
OBJECTS
0
DICTIONARY
5
C
100
AcDbDictionary
3
ACAD_GROUP
350
D
3
ACAD_MLINESTYLE
350
17
0
DICTIONARY
5
D
100
AcDbDictionary
0
DICTIONARY
5
1A
330
C
100
AcDbDictionary
0
DICTIONARY
5
17
100
AcDbDictionary
0
ENDSEC
0
EOF
