0
SECTION
2
HEADER
9
$INSUNITS
70
4
9
$ACADVER
1
AC1014
9
$HANDSEED
5
FFFF
0
ENDSEC
0
SECTION
2
TABLES
0
TABLE
2
VPORT
5
8
100
AcDbSymbolTable
0
ENDTAB
0
TABLE
2
LTYPE
5
5
100
AcDbSymbolTable
0
LTYPE
5
14
100
AcDbSymbolTableRecord
100
AcDbLinetypeTableRecord
2
BYBLOCK
70
0
0
LTYPE
5
15
100
AcDbSymbolTableRecord
100
AcDbLinetypeTableRecord
2
BYLAYER
70
0
0
LTYPE
5
16
100
AcDbSymbolTableRecord
100
AcDbLinetypeTableRecord
2
DASHED
70
0
3
Dashed __ __ __ __ __ __ __ __ __ __ __ __ __ _
72
65
73
2
40
0.75
49
0.5
74
0
49
-0.25
74
0
0
ENDTAB
0
TABLE
2
LAYER
5
2
100
AcDbSymbolTable
70
2
0
LAYER
5
50
100
AcDbSymbolTableRecord
100
AcDbLayerTableRecord
2
0
70
0
62
7
6
CONTINUOUS
0
ENDTAB
0
TABLE
2
STYLE
5
3
100
AcDbSymbolTable
70
1
0
STYLE
5
11
100
AcDbSymbolTableRecord
100
AcDbTextStyleTableRecord
2
STANDARD
70
0
0
ENDTAB
0
TABLE
2
VIEW
5
6
100
AcDbSymbolTable
70
0
0
ENDTAB
0
TABLE
2
UCS
5
7
100
AcDbSymbolTable
70
0
0
ENDTAB
0
TABLE
2
APPID
5
9
100
AcDbSymbolTable
70
2
0
APPID
5
12
100
AcDbSymbolTableRecord
100
AcDbRegAppTableRecord
2
ACAD
70
0
0
ENDTAB
0
TABLE
2
DIMSTYLE
5
A
100
AcDbSymbolTable
70
1
0
ENDTAB
0
TABLE
2
BLOCK_RECORD
5
1
100
AcDbSymbolTable
70
1
0
BLOCK_RECORD
5
1F
100
AcDbSymbolTableRecord
100
AcDbBlockTableRecord
2
*MODEL_SPACE
0
BLOCK_RECORD
5
1B
100
AcDbSymbolTableRecord
100
AcDbBlockTableRecord
2
*PAPER_SPACE
0
ENDTAB
0
ENDSEC
0
SECTION
2
BLOCKS
0
BLOCK
5
20
100
AcDbEntity
100
AcDbBlockBegin
2
*MODEL_SPACE
0
ENDBLK
5
21
100
AcDbEntity
100
AcDbBlockEnd
0
BLOCK
5
1C
100
AcDbEntity
100
AcDbBlockBegin
2
*PAPER_SPACE
0
ENDBLK
5
1D
100
AcDbEntity
100
AcDbBlockEnd
0
ENDSEC
0
SECTION
2
ENTITIES
0
LWPOLYLINE
5
100
100
AcDbEntity
8
0
100
AcDbPolyline
90
12
70
1
43
0.0
10
96.164718204934928
20
47.437822173509012
10
90.102540378443848
20
43.937822173509005
10
92.352540378443862
20
40.040707856479031
10
85.424337148168348
20
36.040707856479024
10
83.174337148168348
20
39.937822173509005
10
77.112159321677282
20
36.437822173508998
10
70.112159321677268
20
48.562177826491137
10
76.174337148168334
20
52.062177826491137
10
73.924337148168334
20
55.959292143521125
10
80.852540378443848
20
59.959292143521111
10
83.102540378443862
20
56.062177826491151
10
89.164718204934928
20
59.562177826491158
0
CIRCLE
5
101
100
AcDbEntity
8
0
100
AcDbCircle
10
98.358835234817604
20
56.787500000000087
30
2.2204460492503131e-15
40
1.5749999999999984
210
2.775557561562895e-17
220
-4.8074067159589083e-17
230
1
0
CIRCLE
5
102
100
AcDbEntity
8
0
100
AcDbCircle
10
67.918042291794592
20
39.21250000000007
30
2.2204460492503131e-15
40
1.575
210
-2.4037033579794551e-17
220
-1.3877787807814469e-17
230
1
0
LWPOLYLINE
5
103
100
AcDbEntity
8
0
100
AcDbPolyline
90
12
70
1
43
0.0
10
-89.164718204934985
20
59.562177826491094
10
-83.102540378443891
20
56.062177826491094
10
-80.852540378443905
20
59.959292143521061
10
-73.924337148168377
20
55.959292143521076
10
-76.174337148168391
20
52.062177826491094
10
-70.112159321677311
20
48.56217782649108
10
-77.112159321677311
20
36.437822173508934
10
-83.174337148168377
20
39.937822173508934
10
-85.424337148168377
20
36.040707856478953
10
-92.352540378443877
20
40.040707856478967
10
-90.102540378443891
20
43.937822173508927
10
-96.164718204934985
20
47.437822173508941
0
CIRCLE
5
104
100
AcDbEntity
8
0
100
AcDbCircle
10
-98.358835234817661
20
56.787500000000016
30
-2.2204460492503131e-15
40
1.5749999999999986
210
-1.7596329843648813e-17
220
-8.5988888547198106e-17
230
1
0
CIRCLE
5
105
100
AcDbEntity
8
0
100
AcDbCircle
10
-67.918042291794634
20
39.212500000000013
30
2.2204460492503131e-15
40
1.575
210
-1.7596329843648807e-17
220
-8.5988888547198106e-17
230
1
0
LWPOLYLINE
5
106
100
AcDbEntity
8
0
100
AcDbPolyline
90
12
70
1
43
0.0
10
-7.0000000000000009
20
-107.00000000000006
10
-7.0000000000000009
20
-100.00000000000006
10
-11.500000000000002
20
-100.00000000000006
10
-11.500000000000002
20
-92.000000000000043
10
-7.0000000000000009
20
-92.000000000000057
10
-7.0000000000000009
20
-85.000000000000071
10
6.9999999999999982
20
-85.000000000000071
10
7
20
-92.000000000000057
10
11.500000000000002
20
-92.000000000000057
10
11.500000000000002
20
-100.00000000000007
10
7
20
-100.00000000000006
10
7
20
-107.00000000000006
0
CIRCLE
5
107
100
AcDbEntity
8
0
100
AcDbCircle
10
0
20
-113.57500000000009
30
-8.8817841970012523e-15
40
1.5749999999999986
210
0
220
-5.5511151231257839e-17
230
1
0
CIRCLE
5
108
100
AcDbEntity
8
0
100
AcDbCircle
10
-2.6268009719751128e-31
20
-78.425000000000068
30
-6.6613381477509392e-15
40
1.575
210
0
220
0
230
1
0
CIRCLE
5
109
100
AcDbEntity
8
0
100
AcDbCircle
10
-103.50772468844433
20
-93.419733405834293
30
-4.4408920985006262e-15
40
1.5499999999999945
210
0
220
-5.5511151231257839e-17
230
1
0
CIRCLE
5
110
100
AcDbEntity
8
0
100
AcDbCircle
10
-92.838084168127921
20
-53.600092885517853
30
-6.6613381477509392e-15
40
1.5500000000000123
210
0
220
-5.5511151231257839e-17
230
1
0
CIRCLE
5
111
100
AcDbEntity
8
0
100
AcDbCircle
10
-132.65772468844435
20
-42.930452365201461
30
-2.2204460492503131e-15
40
1.5499999999999945
210
0
220
-5.5511151231257839e-17
230
1
0
CIRCLE
5
112
100
AcDbEntity
8
0
100
AcDbCircle
10
132.65772468844438
20
-42.930452365201326
30
0
40
1.5499999999999938
210
3.7185420358344059e-18
220
-6.1951854967403564e-17
230
1
0
CIRCLE
5
113
100
AcDbEntity
8
0
100
AcDbCircle
10
92.838084168127978
20
-53.600092885517753
30
-4.4408920985006262e-15
40
1.5500000000000118
210
-1.0159245771980076e-17
220
-3.7914821387608998e-17
230
1
0
CIRCLE
5
114
100
AcDbEntity
8
0
100
AcDbCircle
10
103.5077246884444
20
-93.419733405834165
30
-2.2204460492503131e-15
40
1.5499999999999938
210
3.7185420358344059e-18
220
-6.1951854967403564e-17
230
1
0
ARC
5
115
100
AcDbEntity
8
0
100
AcDbCircle
10
-51.694884245529792
20
-109.59999999999985
30
-8.8817841970012192e-15
40
25.400000000000222
210
-9.5526125241606898e-32
220
-5.551115123125869e-17
230
1
100
AcDbArc
50
244.74821740740222
51
269.99999999999994
0
LINE
5
116
100
AcDbEntity
8
0
100
AcDbLine
10
-51.694884245529821
20
-135.00000000000006
30
-1.0291767438275203e-14
11
51.694884245529884
21
-135.00000000000006
31
-8.8817841970012523e-15
0
ARC
5
117
100
AcDbEntity
8
0
100
AcDbCircle
10
51.694884245529821
20
-109.60000000000001
30
-8.8817841970012018e-15
40
25.400000000000063
210
-1.422420935397898e-18
220
-2.0222202476324468e-30
230
1
100
AcDbArc
50
270.00000000000017
51
295.25178259259798
0
ARC
5
118
100
AcDbEntity
8
0
100
AcDbCircle
10
0
20
-5.5511151231257827e-15
30
-2.2204460492503131e-15
40
146.57970563241497
210
-1.6130098847266555e-18
220
-6.1642977751123437e-17
230
1
100
AcDbArc
50
295.25178259259798
51
323.50881865205162
0
SPLINE
5
119
100
AcDbEntity
8
0
100
AcDbSpline
70
0
71
3
72
16
73
12
74
0
42
0.000000001
43
0.0000000001
44
0.0000000001
40
0
40
0
40
0
40
0
40
0.19531550789748581
40
0.19531550789748581
40
0.39060514787441192
40
0.39060514787441192
40
0.58590832600386356
40
0.58590832600386356
40
0.78125127830885444
40
0.78125127830885444
40
0.96764047141672427
40
0.96764047141672427
40
0.96764047141672427
40
0.96764047141672427
10
115.19843569471811
20
-79.389115149497286
30
-4.4408920985006262e-15
10
115.82440278179256
20
-79.568094234439599
30
-8.8817841970012523e-15
10
116.40941182152631
20
-79.867640085646229
30
-4.4408920985006262e-15
10
117.43158725954855
20
-80.674114899185327
30
-1.1102230246251565e-14
10
117.85898430570852
20
-81.173293039748486
30
-4.4408920985006262e-15
10
118.4984155091347
20
-82.307431911324045
30
-2.2204460492503131e-15
10
118.70431494249559
20
-82.931546292711033
30
-8.8817841970012523e-15
10
118.86536869286647
20
-84.22370754182748
30
-8.8817841970012523e-15
10
118.81893272283341
20
-84.879409091336669
30
-6.6613381477509392e-15
10
118.48523459218296
20
-86.107324460324264
30
-6.6613381477509392e-15
10
118.21200858977208
20
-86.671316742890752
30
-4.4408920985006262e-15
10
117.8425202488593
20
-87.170812343826455
30
-6.6613381477509392e-15
0
ELLIPSE
5
120
100
AcDbEntity
8
0
100
AcDbEllipse
10
118.34066742689963
20
-68.324016195000411
30
-6.6613381477509392e-15
11
-9.9973350215560561
21
5.7719640658742186
31
0.0
40
0.99619469809174621
41
4.4663848363965544
42
8.0999857779620719
0
SPLINE
5
121
100
AcDbEntity
8
0
100
AcDbSpline
70
0
71
3
72
16
73
12
74
0
42
0.000000001
43
0.0000000001
44
0.0000000001
40
0
40
0
40
0
40
0
40
0.19544297511466793
40
0.19544297511466793
40
0.39085449375469028
40
0.39085449375469028
40
0.58620225519642211
40
0.58620225519642211
40
0.78148663651076267
40
0.78148663651076267
40
0.96764951891154949
40
0.96764951891154949
40
0.96764951891154949
40
0.96764951891154949
10
134.41339808270951
20
-58.469210009580898
30
-4.4408920985006262e-15
10
134.15353044942941
20
-59.066613183579086
30
-4.4408920985006262e-15
10
133.77944588398162
20
-59.607547990241088
30
-4.4408920985006262e-15
10
132.84503943083681
20
-60.515453871253044
30
-4.4408920985006262e-15
10
132.29367380222561
20
-60.873779461676953
30
-4.4408920985006262e-15
10
131.08480489245574
20
-61.35875873420936
30
-4.4408920985006262e-15
10
130.43889517491783
20
-61.480850065833117
30
-4.4408920985006262e-15
10
129.1368408865624
20
-61.470509037925105
30
-4.4408920985006262e-15
10
128.49316041474194
20
-61.33825758938201
30
-4.4408920985006262e-15
10
127.3207506478295
20
-60.846211032479388
30
-4.4408920985006262e-15
10
126.79825802620257
20
-60.501614161609574
30
-4.4408920985006262e-15
10
126.3522083507918
20
-60.070214213105203
30
-4.4408920985006262e-15
0
ARC
5
122
100
AcDbEntity
8
0
100
AcDbCircle
10
0
20
-5.5511151231257827e-15
30
-2.2204460492503131e-15
40
146.57970563241491
210
-3.0394659207862929e-17
220
-1.0784984910710761e-16
230
1
100
AcDbArc
50
-23.508818652058466
51
21.595308948077808
0
ARC
5
123
100
AcDbEntity
8
0
100
AcDbCircle
10
112.6736928353674
20
44.600000000000016
30
2.2204460492503127e-15
40
25.400000000000059
210
-1.16326086076284e-16
220
-1.5706804134304525e-16
230
1
100
AcDbArc
50
21.59530894807796
51
89.999999999999901
0
LINE
5
124
100
AcDbEntity
8
0
100
AcDbLine
10
112.67369283536745
20
70.000000000000028
30
5.0404125317982137e-15
11
-112.67369283536746
21
70.000000000000028
31
2.2204460492503131e-15
0
ARC
5
125
100
AcDbEntity
8
0
100
AcDbCircle
10
-112.67369283536743
20
44.600000000000016
30
4.440892098500623e-15
40
25.40000000000002
210
5.3765261523773388e-18
220
8.7419135797256241e-17
230
1
100
AcDbArc
50
90.000000000000057
51
158.40469105192219
0
ARC
5
126
100
AcDbEntity
8
0
100
AcDbCircle
10
0
20
-5.5511151231257827e-15
30
-2.2204460492503131e-15
40
146.57970563241494
210
5.8656366042220091e-18
220
-1.2172546207062605e-16
230
1
100
AcDbArc
50
158.40469105192221
51
203.50881865205162
0
SPLINE
5
127
100
AcDbEntity
8
0
100
AcDbSpline
70
0
71
3
72
16
73
12
74
0
42
0.000000001
43
0.0000000001
44
0.0000000001
40
0
40
0
40
0
40
0
40
0.1953155061842223
40
0.1953155061842223
40
0.39060514702283944
40
0.39060514702283944
40
0.58590832803080262
40
0.58590832803080262
40
0.78125128349794293
40
0.78125128349794293
40
0.9676404714209379
40
0.9676404714209379
40
0.9676404714209379
40
0.9676404714209379
10
-126.35220835079174
20
-60.070214213105295
30
-4.4408920985006262e-15
10
-126.82019232453007
20
-60.522828066003314
30
-4.4408920985006262e-15
10
-127.37211115560214
20
-60.879687828000904
30
-4.4408920985006262e-15
10
-128.58162654637727
20
-61.361680320739033
30
-4.4408920985006262e-15
10
-129.22762602279653
20
-61.482227952117981
30
-4.4408920985006262e-15
10
-130.52953471120244
20
-61.468922184539082
30
-4.4408920985006262e-15
10
-131.17298334653719
20
-61.33517913100323
30
-4.4408920985006262e-15
10
-132.37255470575857
20
-60.828575132990139
30
-4.4408920985006262e-15
10
-132.91719092626965
20
-60.460509618574598
30
-8.8817841970012523e-15
10
-133.81374775015456
20
-59.557560871312234
30
-4.4408920985006262e-15
10
-134.16556638057097
20
-59.038944083833073
30
-6.6613381477509392e-15
10
-134.41339808270948
20
-58.469210009581005
30
-4.4408920985006262e-15
0
ELLIPSE
5
128
100
AcDbEntity
8
0
100
AcDbEllipse
10
-118.34066742689957
20
-68.324016195000496
30
-2.2204460492503131e-15
11
9.9973350215559993
21
5.7719640658743199
31
0.0
40
0.99619469809174621
41
4.4663848363965508
42
8.0999857779620701
0
SPLINE
5
129
100
AcDbEntity
8
0
100
AcDbSpline
70
0
71
3
72
16
73
12
74
0
42
0.000000001
43
0.0000000001
44
0.0000000001
40
0
40
0
40
0
40
0
40
0.19544297591823084
40
0.19544297591823084
40
0.39085449750712875
40
0.39085449750712875
40
0.58620226239078832
40
0.58620226239078832
40
0.78148664568989923
40
0.78148664568989923
40
0.96764951891960715
40
0.96764951891960715
40
0.96764951891960715
40
0.96764951891960715
10
-117.84252024885923
20
-87.170812343826555
30
-4.4408920985006262e-15
10
-118.22995275879599
20
-86.647058782632143
30
-4.4408920985006262e-15
10
-118.51137376113854
20
-86.052624639745744
30
-4.4408920985006262e-15
10
-118.83044009282068
20
-84.789451960721195
30
-4.4408920985006262e-15
10
-118.86507634021797
20
-84.132792514106569
30
-6.6613381477509392e-15
10
-118.68064624305379
20
-82.843391672418178
30
-4.4408920985006262e-15
10
-118.46342556842588
20
-82.222971773886243
30
-6.6613381477509392e-15
10
-117.80344280620902
20
-81.100530190834093
30
-6.6613381477509392e-15
10
-117.367069443684
20
-80.609212276581914
30
-4.4408920985006262e-15
10
-116.35473974718354
20
-79.83989894615101
30
-4.4408920985006262e-15
10
-115.7950638176271
20
-79.559705517096702
30
-4.4408920985006262e-15
10
-115.19843569471806
20
-79.389115149497357
30
-8.8817841970012523e-15
0
ARC
5
130
100
AcDbEntity
8
0
100
AcDbCircle
10
0
20
-5.5511151231257827e-15
30
-2.2204460492503131e-15
40
146.57970563241494
210
2.0833907931871273e-17
220
-5.3636832568829986e-17
230
1
100
AcDbArc
50
216.49118134794151
51
244.74821740740208
0
LWPOLYLINE
5
131
100
AcDbEntity
8
0
100
AcDbPolyline
90
4
70
1
43
0.0
10
-110.8907114218982
20
-49.589025377573577
10
-112.18974956626832
20
-50.339025399961471
42
-0.9999999925494194
10
-115.18974952759569
20
-45.142872954830828
10
-113.89071142189817
20
-44.39287292036277
42
-0.99999999999999989
0
CIRCLE
5
132
100
AcDbEntity
8
0
100
AcDbCircle
10
0
20
-5.5511151231257827e-15
30
-2.2204460492503131e-15
40
30.000000000000018
210
0
220
-1.1102230246251568e-16
230
1
0
LWPOLYLINE
5
133
100
AcDbEntity
8
0
100
AcDbPolyline
90
4
70
1
43
0.0
10
112.1897495275546
20
-50.339025377611996
10
110.89071141442629
20
-49.589025356007468
42
-0.99999999999999989
10
113.89071142937007
20
-44.392872941928616
10
115.18974952759628
20
-45.142872954833074
42
-0.99999999999999989
0
LWPOLYLINE
5
134
100
AcDbEntity
8
0
100
AcDbPolyline
90
4
70
1
43
0.0
10
96.689749527553857
20
-77.185812894929242
10
95.390711414426889
20
-76.435812873325403
42
-0.99999999999999989
10
98.390711429369574
20
-71.239660459245925
10
99.68974952759568
20
-71.989660472150405
42
-0.99999999999999989
0
LWPOLYLINE
5
135
100
AcDbEntity
8
0
100
AcDbPolyline
90
4
70
1
43
0.0
10
-99.689749527595652
20
-71.989660472148458
10
-98.390711414427898
20
-71.239660450619482
42
-0.99999999999999989
10
-95.390711429368366
20
-76.435812881952003
10
-96.689749566268105
20
-77.185812917279023
42
-0.9999999925494194
0
CIRCLE
5
136
100
AcDbEntity
8
0
100
AcDbCircle
10
104.8603399797331
20
-111.34796920330183
30
-4.4408920985006262e-15
40
1.5500000000000027
210
-3.7185420358345777e-18
220
-6.195185496740354e-17
230
1
0
CIRCLE
5
137
100
AcDbEntity
8
0
100
AcDbCircle
10
-145.81003050831865
20
-84.183460364525388
30
2.2204460492503131e-15
40
1.5500000000000027
210
3.7185420358345777e-18
220
-6.195185496740354e-17
230
1
0
CIRCLE
5
138
100
AcDbEntity
8
0
100
AcDbCircle
10
-148.8603399797332
20
-35.137733670271032
30
1.3322676295501878e-14
40
1.5500000000000074
210
3.7185420358344875e-18
220
-6.195185496740354e-17
230
1
0
CIRCLE
5
139
100
AcDbEntity
8
0
100
AcDbCircle
10
25
20
-160.00000000000006
30
-1.3322676295501878e-14
40
1.5499999999999989
210
0
220
-5.5511151231257839e-17
230
1
0
CIRCLE
5
140
100
AcDbEntity
8
0
100
AcDbCircle
10
145.81003050831865
20
-84.183460364525388
30
2.2204460492503131e-15
40
1.5500000000000027
210
-3.7185420358345777e-18
220
-6.195185496740354e-17
230
1
0
CIRCLE
5
141
100
AcDbEntity
8
0
100
AcDbCircle
10
-104.86033997973314
20
-111.34796920330176
30
0
40
1.5500000000000027
210
3.7185420358345777e-18
220
-6.195185496740354e-17
230
1
0
CIRCLE
5
142
100
AcDbEntity
8
0
100
AcDbCircle
10
-25
20
-160.00000000000006
30
-1.3322676295501878e-14
40
1.5500000000000034
210
0
220
-5.5511151231257839e-17
230
1
0
CIRCLE
5
143
100
AcDbEntity
8
0
100
AcDbCircle
10
148.8603399797332
20
-35.137733670271103
30
1.9984014443252818e-14
40
1.5500000000000027
210
-3.7185420358345777e-18
220
-6.195185496740354e-17
230
1
0
LWPOLYLINE
5
144
100
AcDbEntity
8
0
100
AcDbPolyline
90
2
70
1
43
0.0
10
-157.36003050831863
20
-144.18346036452536
42
0.99999999999999989
10
-154.26003050831864
20
-144.18346036452544
42
0.99999999999999989
0
LWPOLYLINE
5
145
100
AcDbEntity
8
0
100
AcDbPolyline
90
2
70
1
43
0.0
10
109.26003050831868
20
-144.18346036452536
42
0.99999999999999989
10
112.36003050831867
20
-144.18346036452544
42
0.99999999999999989
0
LWPOLYLINE
5
146
100
AcDbEntity
8
0
100
AcDbPolyline
90
2
70
1
43
0.0
10
-112.36003050831863
20
-144.18346036452536
42
0.99999999999999989
10
-109.26003050831865
20
-144.18346036452544
42
0.99999999999999989
0
LWPOLYLINE
5
147
100
AcDbEntity
8
0
100
AcDbPolyline
90
2
70
1
43
0.0
10
154.26003050831869
20
-144.18346036452536
42
0.99999999999999989
10
157.36003050831866
20
-144.18346036452544
42
0.99999999999999989
0
LWPOLYLINE
5
148
100
AcDbEntity
8
0
100
AcDbPolyline
90
46
70
1
43
0.0
10
164.89486305041464
20
-80.330762130785288
42
0.13165249758739642
10
166.90448199364806
20
-72.830762130785274
10
166.90448199364806
20
-40.000000000000014
42
0.41421356237309576
10
151.90448199364801
20
-25.000000000000018
10
148.58131497469512
20
-25.000000000000014
42
0.35699331936223166
10
143.68021972732052
20
-29.010421616969225
42
-0.81827049150238829
10
-143.68021972732052
20
-29.010421616969289
42
0.35699331936223333
10
-148.58131497469512
20
-25.000000000000043
10
-151.90448199364803
20
-25.000000000000036
42
0.4142135623730947
10
-166.90448199364801
20
-40.000000000000036
10
-166.90448199364809
20
-72.830762130785331
42
0.13165249758739631
10
-164.89486305041464
20
-80.330762130785359
10
-153.91410093688151
20
-99.350000017252142
42
-0.41421356237309509
10
-159.40448199364809
20
-119.84038107401872
42
0.26794919243112142
10
-166.90448199364809
20
-132.83076213078527
10
-166.90448199364818
20
-173.70000000000005
42
0.41421356237309509
10
-161.90448199364818
20
-178.70000000000005
10
-155.952240996824
20
-178.70000000000007
42
0.41421356237307427
10
-154.952240996824
20
-177.70000000000007
10
-154.95224099682403
20
-176.7000000000001
42
-0.41421356237309509
10
-153.952240996824
20
-175.70000000000007
10
-124.95224099682402
20
-175.69999999999999
42
-0.41421356237309509
10
-123.95224099682402
20
-176.70000000000002
10
-123.95224099682402
20
-177.70000000000005
42
0.41421356237308465
10
-122.95224099682403
20
-178.70000000000005
10
-105
20
-178.70000000000007
42
0.41421356237309404
10
-100
20
-173.7000000000001
42
-0.41421356237309509
10
-95
20
-168.7000000000001
10
-90
20
-168.70000000000007
10
90
20
-168.70000000000007
10
95
20
-168.7000000000001
42
-0.41421356237309087
10
100
20
-173.70000000000005
42
0.41421356237309404
10
105
20
-178.70000000000005
10
122.95224099682403
20
-178.70000000000002
42
0.41421356237310542
10
123.95224099682402
20
-177.70000000000005
10
123.952240996824
20
-176.7000000000001
42
-0.41421356237309509
10
124.95224099682402
20
-175.70000000000007
10
153.952240996824
20
-175.69999999999999
42
-0.41421356237309509
10
154.952240996824
20
-176.70000000000002
10
154.952240996824
20
-177.69999999999996
42
0.41421356237308465
10
155.952240996824
20
-178.69999999999999
10
161.90448199364812
20
-178.70000000000002
42
0.41421356237310125
10
166.90448199364818
20
-173.70000000000005
10
166.90448199364812
20
-132.8307621307853
42
0.26794919243111959
10
159.40448199364812
20
-119.84038107401869
42
-0.41421356237309648
10
153.91410093688151
20
-99.350000017252114
0
CIRCLE
5
149
100
AcDbEntity
8
0
100
AcDbCircle
10
-144
20
-150.00000001883973
30
-1.3322676295501878e-14
40
1.5499999999999945
210
0
220
0
230
1
0
CIRCLE
5
150
100
AcDbEntity
8
0
100
AcDbCircle
10
104.52819999999983
20
-126.08570001883969
30
-1.3322676295501878e-14
40
1.5499999999999945
210
0
220
0
230
1
0
CIRCLE
5
151
100
AcDbEntity
8
0
100
AcDbCircle
10
104.52819999999988
20
-173.91430001883978
30
-8.8817841970012523e-15
40
1.5499999999999945
210
0
220
0
230
1
0
CIRCLE
5
152
100
AcDbEntity
8
0
100
AcDbCircle
10
-104.52819999999983
20
-126.08570001883969
30
-1.3322676295501878e-14
40
1.5499999999999945
210
0
220
0
230
1
0
CIRCLE
5
153
100
AcDbEntity
8
0
100
AcDbCircle
10
144
20
-150.00000001883973
30
-1.3322676295501878e-14
40
1.5499999999999945
210
0
220
0
230
1
0
CIRCLE
5
154
100
AcDbEntity
8
0
100
AcDbCircle
10
-104.52819999999988
20
-173.91430001883978
30
-8.8817841970012523e-15
40
1.5499999999999945
210
0
220
0
230
1
0
ENDSEC
0
SECTION
2
OBJECTS
0
DICTIONARY
5
C
100
AcDbDictionary
3
ACAD_GROUP
350
D
3
ACAD_MLINESTYLE
350
17
0
DICTIONARY
5
D
100
AcDbDictionary
0
DICTIONARY
5
1A
330
C
100
AcDbDictionary
0
DICTIONARY
5
17
100
AcDbDictionary
0
ENDSEC
0
EOF
