0
SECTION
2
HEADER
9
$INSUNITS
70
4
9
$ACADVER
1
AC1014
9
$HANDSEED
5
FFFF
0
ENDSEC
0
SECTION
2
TABLES
0
TABLE
2
VPORT
5
8
100
AcDbSymbolTable
0
ENDTAB
0
TABLE
2
LTYPE
5
5
100
AcDbSymbolTable
0
LTYPE
5
14
100
AcDbSymbolTableRecord
100
AcDbLinetypeTableRecord
2
BYBLOCK
70
0
0
LTYPE
5
15
100
AcDbSymbolTableRecord
100
AcDbLinetypeTableRecord
2
BYLAYER
70
0
0
LTYPE
5
16
100
AcDbSymbolTableRecord
100
AcDbLinetypeTableRecord
2
DASHED
70
0
3
Dashed __ __ __ __ __ __ __ __ __ __ __ __ __ _
72
65
73
2
40
0.75
49
0.5
74
0
49
-0.25
74
0
0
ENDTAB
0
TABLE
2
LAYER
5
2
100
AcDbSymbolTable
70
3
0
LAYER
5
50
100
AcDbSymbolTableRecord
100
AcDbLayerTableRecord
2
1
70
0
62
7
6
DASHED
0
LAYER
5
51
100
AcDbSymbolTableRecord
100
AcDbLayerTableRecord
2
0
70
0
62
7
6
CONTINUOUS
0
ENDTAB
0
TABLE
2
STYLE
5
3
100
AcDbSymbolTable
70
1
0
STYLE
5
11
100
AcDbSymbolTableRecord
100
AcDbTextStyleTableRecord
2
STANDARD
70
0
0
ENDTAB
0
TABLE
2
VIEW
5
6
100
AcDbSymbolTable
70
0
0
ENDTAB
0
TABLE
2
UCS
5
7
100
AcDbSymbolTable
70
0
0
ENDTAB
0
TABLE
2
APPID
5
9
100
AcDbSymbolTable
70
2
0
APPID
5
12
100
AcDbSymbolTableRecord
100
AcDbRegAppTableRecord
2
ACAD
70
0
0
ENDTAB
0
TABLE
2
DIMSTYLE
5
A
100
AcDbSymbolTable
70
1
0
ENDTAB
0
TABLE
2
BLOCK_RECORD
5
1
100
AcDbSymbolTable
70
1
0
BLOCK_RECORD
5
1F
100
AcDbSymbolTableRecord
100
AcDbBlockTableRecord
2
*MODEL_SPACE
0
BLOCK_RECORD
5
1B
100
AcDbSymbolTableRecord
100
AcDbBlockTableRecord
2
*PAPER_SPACE
0
ENDTAB
0
ENDSEC
0
SECTION
2
BLOCKS
0
BLOCK
5
20
100
AcDbEntity
100
AcDbBlockBegin
2
*MODEL_SPACE
0
ENDBLK
5
21
100
AcDbEntity
100
AcDbBlockEnd
0
BLOCK
5
1C
100
AcDbEntity
100
AcDbBlockBegin
2
*PAPER_SPACE
0
ENDBLK
5
1D
100
AcDbEntity
100
AcDbBlockEnd
0
ENDSEC
0
SECTION
2
ENTITIES
0
CIRCLE
5
100
100
AcDbEntity
8
0
100
AcDbCircle
10
-104.8603399797331
20
-111.34796920330174
30
0
40
1.5500000000000023
210
-0
220
0
230
1
0
CIRCLE
5
101
100
AcDbEntity
8
0
100
AcDbCircle
10
145.81003050831865
20
-84.183460364525317
30
0
40
1.5500000000000023
210
-0
220
0
230
1
0
CIRCLE
5
102
100
AcDbEntity
8
0
100
AcDbCircle
10
148.8603399797332
20
-35.137733670270997
30
0
40
1.5500000000000069
210
-0
220
0
230
1
0
CIRCLE
5
103
100
AcDbEntity
8
0
100
AcDbCircle
10
-25
20
-160
30
0
40
1.549999999999998
210
0
220
-0
230
1
0
CIRCLE
5
104
100
AcDbEntity
8
0
100
AcDbCircle
10
-145.81003050831865
20
-84.183460364525317
30
0
40
1.5500000000000023
210
-0
220
0
230
1
0
CIRCLE
5
105
100
AcDbEntity
8
0
100
AcDbCircle
10
104.86033997973314
20
-111.34796920330169
30
0
40
1.5500000000000023
210
-0
220
0
230
1
0
CIRCLE
5
106
100
AcDbEntity
8
0
100
AcDbCircle
10
25
20
-160
30
0
40
1.5500000000000025
210
0
220
-0
230
1
0
CIRCLE
5
107
100
AcDbEntity
8
0
100
AcDbCircle
10
-148.8603399797332
20
-35.137733670271075
30
0
40
1.5500000000000023
210
-0
220
0
230
1
0
CIRCLE
5
108
100
AcDbEntity
8
0
100
AcDbCircle
10
155.81003050831865
20
-144.1834603645253
30
0
40
1.5499999999999934
210
0
220
0
230
1
0
CIRCLE
5
109
100
AcDbEntity
8
0
100
AcDbCircle
10
-110.81003050831868
20
-144.1834603645253
30
0
40
1.5499999999999934
210
0
220
0
230
1
0
CIRCLE
5
110
100
AcDbEntity
8
0
100
AcDbCircle
10
110.81003050831865
20
-144.1834603645253
30
0
40
1.5499999999999934
210
0
220
0
230
1
0
CIRCLE
5
111
100
AcDbEntity
8
0
100
AcDbCircle
10
-155.81003050831868
20
-144.1834603645253
30
0
40
1.5499999999999934
210
0
220
0
230
1
0
LWPOLYLINE
5
112
100
AcDbEntity
8
0
100
AcDbPolyline
90
34
70
1
43
0.0
10
166.90448199364801
20
-40
42
0.41421356237309448
10
151.90448199364806
20
-24.999999999999993
10
148.58131497469512
20
-25.000000000000007
42
0.35699331936223222
10
143.6802197273206
20
-29.010421616969239
42
-0.81827049150238784
10
-143.68021972732055
20
-29.010421616969268
42
0.35699331936223228
10
-148.58131497469512
20
-24.999999999999972
10
-151.90448199364801
20
-24.999999999999993
42
0.41421356237309626
10
-166.90448199364801
20
-39.999999999999986
10
-166.90448199364818
20
-173.6999999999999
42
0.41421356237309509
10
-161.90448199364818
20
-178.6999999999999
10
-155.952240996824
20
-178.6999999999999
42
0.41421356237310542
10
-154.95224099682403
20
-177.69999999999987
10
-154.95224099682403
20
-176.69999999999993
42
-0.41421356237309509
10
-153.952240996824
20
-175.69999999999993
10
-124.95224099682402
20
-175.69999999999999
42
-0.41421356237309509
10
-123.95224099682402
20
-176.69999999999999
10
-123.95224099682402
20
-177.69999999999993
42
0.414213562373069
10
-122.95224099682402
20
-178.69999999999993
10
-105
20
-178.6999999999999
42
0.41421356237309404
10
-100
20
-173.6999999999999
42
-0.41421356237309087
10
-95
20
-168.69999999999999
10
95
20
-168.69999999999999
42
-0.41421356237309509
10
100
20
-173.69999999999999
42
0.41421356237309404
10
105.00000000000001
20
-178.70000000000002
10
122.95224099682402
20
-178.69999999999993
42
0.41421356237309509
10
123.95224099682403
20
-177.69999999999996
10
123.952240996824
20
-176.69999999999993
42
-0.41421356237309509
10
124.95224099682402
20
-175.69999999999993
10
153.952240996824
20
-175.69999999999999
42
-0.41421356237309509
10
154.952240996824
20
-176.69999999999999
10
154.952240996824
20
-177.69999999999996
42
0.41421356237310542
10
155.952240996824
20
-178.69999999999999
10
161.90448199364818
20
-178.69999999999993
42
0.41421356237309298
10
166.9044819936482
20
-173.69999999999993
0
ENDSEC
0
SECTION
2
OBJECTS
0
DICTIONARY
5
C
100
AcDbDictionary
3
ACAD_GROUP
350
D
3
ACAD_MLINESTYLE
350
17
0
DICTIONARY
5
D
100
AcDbDictionary
0
DICTIONARY
5
1A
330
C
100
AcDbDictionary
0
DICTIONARY
5
17
100
AcDbDictionary
0
ENDSEC
0
EOF
